<svg xmlns="http://www.w3.org/2000/svg" viewBox="0 0 270 600"><defs><style>.cls-1{fill:#0a002b;}.cls-2,.cls-3{fill:#2b2522;}.cls-3,.cls-5{opacity:0.15;}.cls-4{fill:none;stroke:#3d3530;stroke-linecap:round;stroke-linejoin:round;}.cls-6{fill:#111b50;}.cls-7{fill:#2e2066;}.cls-8{fill:#ffbe91;}.cls-9{opacity:0.2;}.cls-10{opacity:0.5;}.cls-11{fill:#293842;}.cls-12{fill:#d6996f;}.cls-13{fill:#534741;}.cls-14{fill:#f9f5e4;}.cls-15{opacity:0.05;}.cls-16{fill:#332c28;}.cls-17{fill:#fff;}.cls-18{opacity:0.3;}.cls-19{opacity:0.1;}</style></defs><title>2Artboard 2</title><g id="Objects"><ellipse class="cls-1" cx="104.07" cy="538.04" rx="85.15" ry="21.9"/><path class="cls-2" d="M132.89,516.37s-.17,11-1.83,17.83c0,0,.17,3.33,8.33,4.83s14.17,7.5,17.17,12.67,27,3.83,27.5,3.5c0,0-11.5-15.33-18.67-22.33s-16.5-15.33-17.83-15.67S132.89,516.37,132.89,516.37Z"/><path class="cls-3" d="M155.41,523.54c-3.92-3.51-7.12-6.15-7.86-6.34-1.33-.33-14.67-.83-14.67-.83s-.05,3.35-.38,7.5C140.15,523.88,147.78,523.74,155.41,523.54Z"/><path class="cls-4" d="M152.33,520s-8.67,6.69-7.71,12.71,5.73,3.23,5.07.22S150.93,521.67,152.33,520Z"/><path class="cls-4" d="M152.7,520.2s3.75,11.31,0,16.68"/><path class="cls-2" d="M81.14,515.46V534c0,2.38-22,.75-35,10.5,0,0-16.5-3.25-20.25-4.75,0,0,5.25-10.75,13-12.75s24.25-7,25-12Z"/><path class="cls-5" d="M81.14,521.34v-5.89L63.89,515c-.19,1.26-1.39,2.53-3.2,3.74C67.09,520.7,74.32,521,81.14,521.34Z"/><path class="cls-4" d="M59.08,519.78s-12.73,12-6.7,15.58C56.74,537.93,59.7,520.56,59.08,519.78Z"/><path class="cls-4" d="M59.7,519.39s4.21,5.22,2.34,11.45"/><path class="cls-6" d="M145.17,298c.27,5.16.59,10.17,1,14.92,3,36.67,5.24,127,2.51,204.68,0,0-10.61-.38-16.19-.6.45-79.26-2.57-178.67-24.9-177.11-8.22.57-20,26.47-23.29,82.75s-2.83,93.76-2.83,93.76L62.82,516c3.68-163.39,5.12-163.27,6.07-203.33l1.52-15.45Z"/><path class="cls-5" d="M145.92,309.93c-.29-3.85-.54-7.85-.75-11.95l-74.77-.72-1.24,12.67Z"/><path class="cls-7" d="M226.21,173.88c-7.2,24.15-23.64,50.88-37.52,48.57s-28.39-42.19-31.39-60.92c-.71-4.42-11.05-6.76-16.25-8-6.15-1.44-14.29-2.79-14.29-2.79-12.08-1-28.27,1.54-28.27,1.54-32.12,2.31-31.76,7.77-31.76,7.77,10.54,3.34,7.6,36.43,7.6,36.43s1.45,37.62.16,59l-4.11,48,75.49.72c-2.32-44.89-1.14-107.69-1.14-107.69S160.28,245.94,188,247s52.82-64.87,52.82-64.87Z"/><path class="cls-8" d="M228,177.2s-4.71-3.73-.81-8.27,8.11-6.17,8.28-13.3c0,0,2.92-3.24,3.89,1.46a12.19,12.19,0,0,1-1.78,9.57s7.95-.81,10.87-3.08,6.16-4.87,6.49-6.65.27-4.3,2.6-4.71c1.38-.24,3.73,1.46,2.43,5,0,0,2.76.16,2.92,2.11,0,0,2.27,1.46,1.46,3.41,0,0-8.82,18.61-26.34,19.1C235.57,181.93,231,179.8,228,177.2Z"/><g class="cls-9"><path d="M133.7,311.69c1.18,8.52,2.18,17.07,3.12,25.62l1.27,12.84L139.22,363c1.44,17.15,2.41,34.33,3.11,51.52.37,8.6.5,17.2.71,25.8l.11,12.91,0,6.45-.08,6.45c0,17.21-.87,34.41-1.9,51.57l.48-12.89.24-6.44.11-6.45.27-12.89,0-12.9v-6.45l-.07-6.45-.15-12.9c-.24-8.59-.4-17.19-.8-25.78q-.93-25.78-2.88-51.5l-1-12.86-1.13-12.85C135.55,328.79,134.72,320.23,133.7,311.69Z"/></g><g class="cls-9"><path d="M80.88,311.69,76.72,362.1c-1.35,16.8-2.66,33.61-3.12,50.46s-.53,33.7-.48,50.56l.23,50.59-.58-25.29-.42-25.29c-.21-16.86-.27-33.73.25-50.6S74.44,378.83,76,362l2.38-25.18Z"/></g><path class="cls-5" d="M81.33,292a66.13,66.13,0,0,0-5.75-13.21,25.63,25.63,0,0,1-2.6-5.49L70.4,303.47l13.91.13A106.34,106.34,0,0,0,81.33,292Z"/><path class="cls-7" d="M66.76,160s-28.85,69.87-30.13,89.65c0,0,20.24,58.21,28.47,68.49l18.1-12.89s-22.62-51.55-23.39-52.58-3.08-4.37,1.54-15.16,16-40.38,16-40.38,1.82-17.55-.17-23.4C71.09,155.85,66.76,160,66.76,160Z"/><path class="cls-5" d="M65.1,318.12l17.91-13c-6.62-1.11-10.83,3.19-13.41,5.38C67.18,312.6,65.1,318.12,65.1,318.12Z"/><path class="cls-8" d="M70.75,323.38a112.78,112.78,0,0,1,15.79-2.23,45.57,45.57,0,0,1-2.64-7.07,11.42,11.42,0,0,0,7,.39c4.77-1.19.82-4.18.82-4.18-7.23,1-5.79-2-11.2-4.82-3.29-1.75-9.39,3.64-11.81,5.89-1.5,1.39-.61,3.22-.13,5.7A25.1,25.1,0,0,0,70.75,323.38Z"/><g class="cls-10"><path class="cls-11" d="M95.05,270.21l4.41-.67c1.47-.21,2.94-.44,4.4-.7,2.92-.5,5.84-1,8.73-1.65a79.2,79.2,0,0,0,8.55-2.29,27.44,27.44,0,0,0,4.06-1.72,11.19,11.19,0,0,0,3.51-2.64,10.39,10.39,0,0,1-3.26,3.06,27.39,27.39,0,0,1-4,2,54.37,54.37,0,0,1-8.61,2.55c-2.93.62-5.87,1.11-8.84,1.44A86.32,86.32,0,0,1,95.05,270.21Z"/></g><g class="cls-10"><path class="cls-11" d="M103.72,256.54a47.06,47.06,0,0,1,5.69-3.27,55.29,55.29,0,0,1,6.05-2.57,43.56,43.56,0,0,1,6.36-1.74,25.8,25.8,0,0,1,6.56-.42c-1.09.16-2.17.23-3.23.48s-2.12.44-3.17.69c-2.09.56-4.15,1.21-6.19,1.93s-4.05,1.52-6.07,2.33c-1,.4-2,.83-3,1.27S104.73,256.11,103.72,256.54Z"/></g><g class="cls-10"><path class="cls-11" d="M96.39,244.21a38,38,0,0,1,6.15-3,44.94,44.94,0,0,1,6.56-2,36.34,36.34,0,0,1,6.82-.82,25.43,25.43,0,0,1,6.8.79c-1.15,0-2.26-.21-3.39-.14a32,32,0,0,0-3.37.11,56.43,56.43,0,0,0-6.65,1c-2.2.47-4.36,1.08-6.52,1.74q-1.62.49-3.21,1.08C98.5,243.37,97.45,243.8,96.39,244.21Z"/></g><path class="cls-5" d="M115,169.78c8.13-.19,14.72-5.62,15.11-9.68.16-1.69.12-5.17,0-8.75-2-.36-3.36-.58-3.36-.58-12.08-1-28.27,1.54-28.27,1.54l-1.19.09a32.19,32.19,0,0,1-.75,7.12C95.4,162.8,106.83,170,115,169.78Z"/><path class="cls-12" d="M98.7,136.75s.35,14.35-.71,17.36,9.39,9.57,16.83,9.39,13.46-5.14,13.82-8.86-.35-17,0-18.07S98.7,136.75,98.7,136.75Z"/><path class="cls-8" d="M151.32,83.6s2.48-5.14,6.38-4.78,3.9,8.5,3.72,11.87-5.7,14.25-10.81,8.5C147.78,96,151.32,83.6,151.32,83.6Z"/><path class="cls-5" d="M114.55,152.37c2.06.09,7.93-2.81,14.13-6.18-.09-4.49-.23-9,0-9.62.36-1.06-29.94.18-29.94.18s.15,6.06,0,11.13C106.09,150.31,112.83,152.3,114.55,152.37Z"/><path class="cls-8" d="M67.16,88.08S61.67,82.59,59.55,90s.84,18.36,10.81,17.36C73.9,107,67.16,88.08,67.16,88.08Z"/><path class="cls-8" d="M70.35,124.35c0-7.69.36-19.31-2.66-30.65S55.12,52.06,94.27,40.36,155.93,48,152.74,78.64s.11,27.25-.18,36.32c-.18,5.67-2.3,10.63-8.51,14.88-8.92,6.12-26.58,15.24-30.3,15.24S88,135.27,79,133C70.53,130.9,70.37,127.42,70.35,124.35Z"/><path class="cls-13" d="M81.62,95c-1.47-.6-3.47-1.44-2.6-5.78s8.38-5.59,11.85-4.53,7.7,3.37,6,5.78S88.43,97.73,81.62,95Z"/><path class="cls-14" d="M81.62,95.69C80.15,95.09,78,94,79,89.91c.77-3,8.89-5.08,12.36-4s7.2,2.86,5.46,5.27S88.43,98.45,81.62,95.69Z"/><g class="cls-15"><path d="M150.31,48.47C143.92,42.57,145,36,145,36a41.08,41.08,0,0,1-7.66,1.44c-4,.32-8.94-3.83-13.88-6.22S111,32.36,111,32.36c0-4.31,5.9-5.75,5.9-5.75C106.58,28,105.14,32.83,103.23,34S94,32.36,94,32.36c-2.23-.48-1.76,2.23-6.7,2.23-5.62,0-7.82,1.28-7.82,1.28a15.23,15.23,0,0,1,8.62,2.39c-6.54.16-7.82,7-7.82,7-4.31-2.71-11.17-.16-15.32,3.35s4.46.57,4.46.57l-1.75,7.57c-6.1,9.47-5.21,21.83-4,28.74.12.18.23.36.34.54a1,1,0,0,1,1.63-.38A10.62,10.62,0,0,1,69,92.2h3.17L72.11,92l-2.23-8.78c.32-.64,3.83-2.23,4.47-7.34a37.07,37.07,0,0,1,1-5.9s7.5-2.71,8.3-3.19,7.18-5.59,7.18-5.59L100,58.37s-5.18,6.23-7.65,7.79a125,125,0,0,1,12-3.8l3.83-.8s10.53-2.23,12.29-2.39a4.89,4.89,0,0,0-1.6-5.11s6.7,3,9.1,2.71S134,55.66,134,55.66l3.59-1.45,1.88-.57-2.92,10.64S141,58.69,142,58.37c0,0,.48,19.15-1.76,21.39,0,0,4-3.51,4-4.95,0,0,.95,12.42.72,17.39H151c0-2-.06-3.43-.09-3.82-.16-2.07.8-21.7,2.55-26.81S156.69,54.38,150.31,48.47Z"/><path d="M99.77,130.4s19.27-1.62,27.57-6.22c0,0-.74,10-12.16,11.21S99.77,130.4,99.77,130.4Z"/></g><path class="cls-13" d="M120,91.6S117,89.1,118.3,86s7-4.91,11.46-4.82,7.8,4.24,4.53,8S123,94.4,120,91.6Z"/><path class="cls-14" d="M120.14,92.22s-3.08-2.5-1.73-5.59,7-4.24,11.46-4.14,7.8,3.57,4.53,7.32S123.12,95,120.14,92.22Z"/><circle class="cls-16" cx="87.3" cy="90.49" r="2.7"/><circle class="cls-16" cx="125.91" cy="87.98" r="2.7"/><path class="cls-13" d="M74.67,81.63a43.83,43.83,0,0,1,6.93-4c3.56-1.73,8.09-2.5,10.5-2s6.65,3.37,5.3,4.14-6.89-.07-10.5.67a82.45,82.45,0,0,0-9,2.31C76,83.32,74.1,83.46,74.67,81.63Z"/><path class="cls-13" d="M120.42,78.06s-4.14,1.25-4.91-.87,1.54-3.08,5.68-3.18,13.87,1.64,15.6,3.56,1.16,1.64-.19,1.83S129.19,76.71,120.42,78.06Z"/><path class="cls-13" d="M152.22,42c-6.67-6.17-5.5-13-5.5-13a42.94,42.94,0,0,1-8,1.5c-4.17.33-9.33-4-14.5-6.5s-13,1.17-13,1.17c0-4.5,6.17-6,6.17-6-10.83,1.5-12.33,6.5-14.33,7.67s-9.67-1.67-9.67-1.67c-2.33-.5-1.83,2.33-7,2.33-5.87,0-8.17,1.33-8.17,1.33a15.91,15.91,0,0,1,9,2.5c-6.83.17-8.17,7.33-8.17,7.33-4.5-2.83-11.67-.17-16,3.5S57.22,57,57.22,57l8.67-6.33c-9.33,14.5-3,35.5-3,35.5,3.17.67,3,2,4.67,5.67s1.78,25.51,1.5,28.5a13.09,13.09,0,0,0,7.17,13c5.73,2.82,34.5,12.5,38.33,12.67s20.81-10,28.67-14.33c8.41-4.65,9.67-9.83,9.83-12.17s0-33.67-.17-35.83.83-22.67,2.67-28S158.89,48.21,152.22,42Zm-11.5,65.83c-1.52,1.31-11.14,6-20.3,6,0,0-1.53,5.21-5.7,5.88a22.59,22.59,0,0,1-9.83-.5c-4-1.6-4.5-3.33-4.5-3.33s-9.81.61-13.15-.05-10.19-4.95-12.19-12.95-4.5-15.33-4.5-15.33l-2.33-9.17c.33-.67,4-2.33,4.67-7.67a38.79,38.79,0,0,1,1-6.17s7.83-2.83,8.67-3.33,7.5-5.83,7.5-5.83l9.67-3s-5.41,6.51-8,8.13a130.48,130.48,0,0,1,12.49-4l4-.83s11-2.33,12.83-2.5c0,0,1-3.33-1.67-5.33,0,0,7,3.17,9.5,2.83s6.33-1.17,6.33-1.17L139,48l2-.6-3,11.12s4.67-5.83,5.67-6.17c0,0,.5,20-1.83,22.33,0,0,4.17-3.67,4.17-5.17,0,0,1.17,15.33.67,19.33C146.55,88.87,145.49,103.77,140.72,107.87Z"/><path class="cls-12" d="M103.55,102.21s-.33,10.5-3.5,12.33,4.67,7,11,6.17,9.83-3,9.5-6.5-2.33-4.67-2.33-4.67,2.67,4.17.83,6.17a15.21,15.21,0,0,1-8.5,4.17c-3.33.5-11-2.67-9.5-4.5S104.89,108.21,103.55,102.21Z"/><path class="cls-17" d="M99.44,127.6s20.13-1.69,28.8-6.49c0,0-.77,10.43-12.7,11.7S99.44,127.6,99.44,127.6Z"/><g class="cls-18"><path class="cls-12" d="M117,101.17a19.78,19.78,0,0,1,2.15-2.51,19.53,19.53,0,0,1,2.5-2.15A19.53,19.53,0,0,1,119.54,99,19.79,19.79,0,0,1,117,101.17Z"/><path class="cls-12" d="M123,100.57a19.79,19.79,0,0,1,2.15-2.51,19.54,19.54,0,0,1,2.51-2.15,19.54,19.54,0,0,1-2.15,2.51A19.79,19.79,0,0,1,123,100.57Z"/><path class="cls-12" d="M129,100.57a19.79,19.79,0,0,1,2.15-2.51,19.54,19.54,0,0,1,2.51-2.15,19.54,19.54,0,0,1-2.15,2.51A19.79,19.79,0,0,1,129,100.57Z"/><path class="cls-12" d="M134.95,100.57a19.79,19.79,0,0,1,2.15-2.51,19.54,19.54,0,0,1,2.51-2.15,19.54,19.54,0,0,1-2.15,2.51A19.79,19.79,0,0,1,134.95,100.57Z"/></g><path class="cls-19" d="M262.92,159.36c-.16-1.95-2.92-2.11-2.92-2.11,1.3-3.57-1.06-5.27-2.43-5-2.33.41-2.27,2.92-2.6,4.71s-3.57,4.38-6.49,6.65-10.87,3.08-10.87,3.08a12.19,12.19,0,0,0,1.78-9.57c-1-4.71-3.89-1.46-3.89-1.46-.16,7.14-4.38,8.76-8.28,13.3a5.15,5.15,0,0,0-1.19,5.5c-7.28,24-23.58,50.31-37.35,48s-28.39-42.19-31.39-60.92c-.71-4.42-11.05-6.76-16.25-8-3.66-.86-8-1.68-10.93-2.21l-.09,0-.61-.11h-.07l-.6-.11c0-1.48,0-3.19-.07-4.9v0c0-.2,0-.41,0-.61,0-1.17-.05-2.34-.08-3.42v0c0-.24,0-.47,0-.7,0,0,0,0,0-.06,0-.49,0-1,0-1.39,5.37-2.92,11-6.2,14.67-8.22,8.41-4.65,9.67-9.83,9.83-12.17.09-1.2.08-10.12,0-18.77,4.27.86,8.18-7.26,8.33-10.08.18-3.37.18-11.52-3.72-11.87-2-.19-3.69,1.14-4.8,2.44.18-6.12,1.12-21.1,2.65-25.55,1.83-5.33,3.33-7.5-3.33-13.67s-5.5-13-5.5-13a42.94,42.94,0,0,1-8,1.5c-4.17.33-9.33-4-14.5-6.5s-13,1.17-13,1.17c0-4.5,6.17-6,6.17-6a24.2,24.2,0,0,0-8,2.36V340c20.68,3.84,23.53,99.93,23.09,177l.4,0c0,1.16-.12,3.79-.36,6.87a69.57,69.57,0,0,1-1.46,10.34s.17,3.33,8.33,4.83,14.17,7.5,17.17,12.67,27,3.83,27.5,3.5c0,0-11.5-15.33-18.67-22.33-3.21-3.14-6.86-6.54-10-9.38l-.79-.71-.5-.44-.82-.72-.17-.15c-.22-.79-.37-1.27-.37-1.27v1l-.68-.58,0,0a3.59,3.59,0,0,1,.35-.55l-.51.42-.13-.11-.69-.58-.27-.22-.7-.57-.19-.15-.67-.52-.14-.11-.57-.41-.1-.06-.13-.09.43,0c2.73-77.72.47-168-2.51-204.68-.08-1-.15-2-.23-3q-.21-2.75-.38-5.59c0-.05,0-.1,0-.15h.36c-2.32-44.89-1.14-107.69-1.14-107.69S160.28,245.94,188,247s52.82-64.87,52.82-64.87l-.71-.4c16.12-1.83,24.24-18.94,24.24-18.94C265.19,160.82,262.92,159.36,262.92,159.36Z"/></g></svg>