<svg id="Layer_1" data-name="Layer 1" xmlns="http://www.w3.org/2000/svg" xmlns:xlink="http://www.w3.org/1999/xlink" viewBox="0 0 211 52"><defs><style>.cls-1{fill:#fff;}.cls-2{mask:url(#mask);}.cls-3{fill:#010735;}.cls-4{fill:#e3dcff;}.cls-5{mask:url(#mask-2-2);}</style><mask id="mask" x="68.32" y="0.05" width="146" height="52" maskUnits="userSpaceOnUse"><g id="mask-2"><path id="path-1" class="cls-1" d="M191.55,51.5a11.38,11.38,0,0,1-2.41-.25,5.35,5.35,0,0,1-1.78-.67l.76-5a6.14,6.14,0,0,0,2.77.62,3.5,3.5,0,0,0,2.58-1,12.06,12.06,0,0,0,2.12-3.68l.76-1.79L187.4,19.74h6.32L199.39,34l5.24-14.28h6.25l-9.35,22.31a30.4,30.4,0,0,1-3,5.73,8.88,8.88,0,0,1-3.08,2.87A8.31,8.31,0,0,1,191.55,51.5ZM178.1,6.86H184V41.11h-5.9ZM165.17,41.67a15.17,15.17,0,0,1-6.6-1.35,10.08,10.08,0,0,1-4.39-3.94,11.45,11.45,0,0,1-1.57-6.09A12.39,12.39,0,0,1,154,24.46a10.18,10.18,0,0,1,3.86-4.09,11.12,11.12,0,0,1,5.81-1.5A10.88,10.88,0,0,1,169,20.16a9,9,0,0,1,3.59,3.69,11.8,11.8,0,0,1,1.29,5.69,13.86,13.86,0,0,1-.21,2.53H158.46q1.1,4.8,7.34,4.8a17.88,17.88,0,0,0,3.8-.4,13.67,13.67,0,0,0,3.33-1.15l.59,4.59a13.49,13.49,0,0,1-3.73,1.3A22.44,22.44,0,0,1,165.17,41.67ZM168.26,28a5.28,5.28,0,0,0-1.46-3.44,4.58,4.58,0,0,0-3.33-1.2,4.79,4.79,0,0,0-3.35,1.2,5.8,5.8,0,0,0-1.7,3.44ZM140.72,41.67a18.67,18.67,0,0,1-4.67-.57,9.39,9.39,0,0,1-3.4-1.5l.72-4.76a12.52,12.52,0,0,0,3.37,1.56,12.69,12.69,0,0,0,3.71.59q3.61,0,3.61-1.81a1.66,1.66,0,0,0-.76-1.48,13.15,13.15,0,0,0-3.18-1.18,12.47,12.47,0,0,1-5.45-2.68A5.87,5.87,0,0,1,133,25.48a5.75,5.75,0,0,1,2.34-4.85,10.37,10.37,0,0,1,6.41-1.76,17.69,17.69,0,0,1,4,.46A11.45,11.45,0,0,1,149,20.56l-.69,4.64a12,12,0,0,0-3-1.2,13.18,13.18,0,0,0-3.29-.43q-3.1,0-3.1,1.64a1.68,1.68,0,0,0,.74,1.45,10.57,10.57,0,0,0,3,1.15,14.26,14.26,0,0,1,5.75,2.78A5.84,5.84,0,0,1,150.05,35a5.68,5.68,0,0,1-2.48,4.87A11.6,11.6,0,0,1,140.72,41.67ZM125.66,15.16a3.44,3.44,0,0,1-2.53-1,3.28,3.28,0,0,1-1-2.43,3.2,3.2,0,0,1,1-2.4,3.77,3.77,0,0,1,5,0,3.21,3.21,0,0,1,1,2.4,3.26,3.26,0,0,1-1,2.45A3.48,3.48,0,0,1,125.66,15.16Zm-2.92,4.38h5.9V41.11h-5.9ZM105.27,41.67a9.45,9.45,0,0,1-8.7-5.37,13,13,0,0,1-1.31-6,12.6,12.6,0,0,1,1.29-5.71,10.63,10.63,0,0,1,3.67-4.17,9.45,9.45,0,0,1,5.35-1.58,8.8,8.8,0,0,1,4,.91,7.2,7.2,0,0,1,2.86,2.55l.09-2.78h5.65V41h-5.64l-.09-2.74a7,7,0,0,1-2.93,2.55A9.83,9.83,0,0,1,105.27,41.67Zm1.61-5.21A5.38,5.38,0,0,0,111,34.74a6.26,6.26,0,0,0,1.61-4.47A6.26,6.26,0,0,0,111,25.82a5.83,5.83,0,0,0-8.28,0,6.28,6.28,0,0,0-1.59,4.43,6.34,6.34,0,0,0,1.61,4.47A5.38,5.38,0,0,0,106.88,36.46ZM69.18,9H79.66q5.56,0,8.74,2.72a9.3,9.3,0,0,1,3.18,7.48,9.44,9.44,0,0,1-1.4,5.08,10.35,10.35,0,0,1-4,3.65L94.81,41H87.51l-6.93-11.5-1.21.06-.91,0H75.39V41H69.18Zm6.21,15.42h3.18q6.66,0,6.66-5.18a4.5,4.5,0,0,0-1.63-3.77,7.7,7.7,0,0,0-4.82-1.29H75.39Z"/></g></mask><mask id="mask-2-2" x="0" y="0" width="52" height="52" maskUnits="userSpaceOnUse"><g id="mask-4"><path id="path-3" class="cls-1" d="M11.68,42.24,26,26.07l14.26,16.2a21.61,21.61,0,0,1-28.6,0M26,4.33A21.65,21.65,0,0,1,43.25,39.09L26,19.53,8.72,39.05A21.66,21.66,0,0,1,26,4.33M26,0A26,26,0,1,0,52,26,26,26,0,0,0,26,0"/></g></mask></defs><title>2Artboard 1</title><g id="logo_p-pdark" data-name="logo p-pdark"><g id="Logo_Lockup" data-name="Logo/Lockup"><g id="Logo_Type" data-name="Logo/Type"><g id="Type"><g class="cls-2"><g id="PurpleDarkest"><g id="Color-Copy-10"><polygon class="cls-3" points="68.32 0.05 214.32 0.05 214.32 52.05 68.32 52.05 68.32 0.05"/></g></g></g></g></g><g id="Logo_icon" data-name="Logo/icon"><g id="Fill-1"><path id="path-3-2" data-name="path-3" class="cls-4" d="M11.68,42.24,26,26.07l14.26,16.2a21.61,21.61,0,0,1-28.6,0M26,4.33A21.65,21.65,0,0,1,43.25,39.09L26,19.53,8.72,39.05A21.66,21.66,0,0,1,26,4.33M26,0A26,26,0,1,0,52,26,26,26,0,0,0,26,0"/></g><g class="cls-5"><g id="PurpleDark"><polygon id="Color-Copy-13" class="cls-4" points="0 0 52 0 52 52 0 52 0 0"/></g></g></g></g></g></svg>